<svg width="50" height="50" viewBox="0 0 50 50" fill="none" xmlns="http://www.w3.org/2000/svg">
<path d="M40.9373 45C39.7654 43.8281 40.2341 42.3438 41.0154 41.5625C41.7966 40.7813 43.281 40.3125 44.4529 41.4844C45.6248 42.6563 46.0935 45 45.2341 45.7813C44.4529 46.6406 42.1091 46.1719 40.9373 45ZM43.6716 33.9063C42.4998 32.7344 42.9685 31.25 43.7498 30.4688C44.531 29.6875 46.0154 29.2188 47.1873 30.3906C48.3591 31.5625 48.8279 33.9063 47.9685 34.7656C47.1873 35.5469 44.8435 35.0781 43.6716 33.9063Z" fill="#3E4347"/>
<path d="M10.0781 45C6.48437 45 1.5625 44.1406 1.5625 40.3906C1.5625 36.25 5.625 32.3438 10.0781 32.3438V45V45Z" fill="#5B7F32"/>
<path d="M18.6719 37.4219C18.6719 44.4531 13.75 45.0781 10.1562 45.0781C6.5625 45.0781 2.96875 43.4375 2.96875 40.4687C2.96875 36.9531 6.5625 32.4219 10.1562 32.4219C13.6719 32.4219 18.6719 33.9063 18.6719 37.4219Z" fill="#94D82A"/>
<path d="M16.5626 45C4.14072 45 4.06259 30.0781 16.797 30.0781L16.5626 45Z" fill="#5B7F32"/>
<path d="M24.2967 36.0156C24.2967 44.2969 19.9217 45.0781 16.4842 45.0781C5.23416 45.0781 5.54666 30.1562 16.7185 30.1562C20.2342 30.0781 24.2967 31.875 24.2967 36.0156Z" fill="#94D82A"/>
<path d="M24.0626 45C10.7032 45 11.2501 29.375 24.0626 29.375V45Z" fill="#5B7F32"/>
<path d="M33.125 35.5469C33.125 44.2188 28.0469 45 24.0625 45C13.0469 45 13.0469 29.375 24.0625 29.375C27.9688 29.375 33.125 31.25 33.125 35.5469Z" fill="#94D82A"/>
<path d="M34.9219 45C18.2031 45 19.7656 27.0312 33.75 27.0312L34.9219 45Z" fill="#5B7F32"/>
<path d="M45.0781 35.3126C45.0781 43.9845 39.5313 45.0782 34.9219 45.0782C20.8594 45.0782 20.8594 26.797 34.9219 26.797C39.5313 26.7188 45.0781 30.9376 45.0781 35.3126Z" fill="#94D82A"/>
<path d="M44.8439 33.8281C44.8439 33.8281 42.0314 37.2656 37.7346 37.8125C33.3596 38.3594 22.1096 35.3125 29.1408 25.5469L44.8439 33.8281" fill="#5B7F32"/>
<path d="M46.6406 29.8438C46.6406 34.2969 41.4844 36.25 37.1875 36.25C32.8906 36.25 27.7344 34.2969 27.7344 29.8438C27.7344 25.3906 32.8906 20.0781 37.1875 20.0781C41.5625 20.0781 46.6406 25.3906 46.6406 29.8438Z" fill="#94D82A"/>
<path d="M24.9218 42.8124C26.5624 41.1718 28.203 41.4062 29.0624 42.2656C29.8437 43.0468 30.1562 44.7656 28.5155 46.4062C26.8749 48.0468 23.9843 48.9843 23.1249 48.2031C22.2655 47.3437 23.2812 44.4531 24.9218 42.8124V42.8124ZM26.5624 26.2499C28.203 27.8906 27.9687 29.5312 27.1093 30.3906C26.328 31.1718 24.6093 31.4843 22.9687 29.8437C21.328 28.2031 20.3905 25.3124 21.1718 24.5312C22.0312 23.6718 24.9218 24.6093 26.5624 26.2499V26.2499ZM16.2499 43.2031C17.6562 41.7968 19.0624 42.0312 19.6874 42.7343C20.3905 43.4374 20.6249 44.8437 19.2187 46.1718C17.8124 47.5781 15.3905 48.3593 14.6874 47.6562C14.0624 47.0312 14.8437 44.5312 16.2499 43.2031V43.2031ZM9.3749 43.4374C10.5468 42.2656 11.7187 42.4218 12.3437 43.0468C12.8905 43.5937 13.1249 44.8437 11.953 46.0156C10.7812 47.1874 8.67178 47.8906 8.1249 47.2656C7.4999 46.7187 8.20303 44.6093 9.3749 43.4374Z" fill="#3E4347"/>
<path d="M22.1875 31.25L21.4062 32.0313L22.1875 32.8125L22.8906 32.0313L22.1875 31.25ZM19.8437 36.0156L19.1406 36.7969L19.8437 37.5781L20.625 36.7969L19.8437 36.0156ZM12.1875 32.0313L11.4063 32.8125L12.1875 33.5156L12.9688 32.8125L12.1875 32.0313ZM6.32813 35.3125L5.625 36.0156L6.32813 36.7969L7.10938 36.0156L6.32813 35.3125ZM5.07812 37.0313L4.29688 37.8125L5.07812 38.5938L5.85938 37.8125L5.07812 37.0313ZM27.0312 34.7656L26.25 35.5469L27.0312 36.3281L27.8125 35.5469L27.0312 34.7656ZM28.9844 37.1875L28.2031 37.9687L28.9844 38.6719L29.7656 37.9687L28.9844 37.1875ZM42.9688 36.7969L42.1875 37.5781L42.9688 38.2813L43.6719 37.5781L42.9688 36.7969ZM42.4219 30.5469L41.6406 31.25L42.4219 32.0313L43.125 31.25L42.4219 30.5469ZM31.4844 28.3594L30.7031 29.0625L31.4844 29.8438L32.1875 29.0625L31.4844 28.3594ZM19.1406 31.6406L17.5781 33.125L19.1406 34.6875L20.625 33.125L19.1406 31.6406ZM43.9063 26.7969L42.4219 28.3594L43.9063 29.8438L45.3906 28.3594L43.9063 26.7969ZM11.4063 34.1406L9.92187 35.7031L11.4063 37.1875L12.9688 35.7031L11.4063 34.1406Z" fill="#5B7F32"/>
<path d="M31.6406 8.04688L30.9375 7.96875C31.0156 6.48437 29.9219 4.60937 27.9688 4.0625L28.125 3.35938C30.2344 3.98438 31.7969 6.01563 31.6406 8.04688" fill="#3E4347"/>
<path d="M29.375 2.6563C30 3.35942 29.9218 4.45317 29.2187 5.07817C28.5156 5.70317 27.4218 5.62505 26.7968 4.92192C26.1718 4.2188 26.25 3.12505 26.9531 2.50005C27.6562 1.79692 28.75 1.87505 29.375 2.6563ZM38.4375 7.6563L38.3593 6.95317C39.8437 6.79692 41.4062 5.23442 41.5625 3.2813L42.2656 3.35942C42.1093 5.4688 40.3906 7.42192 38.4375 7.6563Z" fill="#3E4347"/>
<path d="M43.2813 4.37506C42.7344 5.15631 41.6407 5.23444 40.8594 4.68756C40.0782 4.06256 40.0001 3.04694 40.5469 2.26569C41.0938 1.48444 42.1876 1.40631 42.9688 1.95318C43.6719 2.50006 43.8282 3.59381 43.2813 4.37506Z" fill="#3E4347"/>
<path d="M43.5156 23.2031C41.6406 29.0625 30.7031 29.375 29.2188 25.5469L43.5156 23.2031" fill="#5B7F32"/>
<path d="M46.2499 17.4999C46.6406 25.6249 30.0781 31.1718 25.2343 21.5624C21.5624 14.2187 27.3437 6.5624 33.4374 5.85928C43.4374 4.6874 46.0937 13.5937 46.2499 17.4999Z" fill="#94D82A"/>
<path d="M40.0781 14.2969C40.0781 15.625 39.375 16.6406 38.5156 16.6406C37.6562 16.6406 36.9531 15.625 36.9531 14.2969C36.9531 12.9687 37.6562 11.9531 38.5156 11.9531C39.375 11.9531 40.0781 13.0469 40.0781 14.2969Z" fill="#3E4347"/>
<path d="M29.2188 16.6406C30.0817 16.6406 30.7812 15.5913 30.7812 14.2969C30.7812 13.0025 30.0817 11.9531 29.2188 11.9531C28.3558 11.9531 27.6562 13.0025 27.6562 14.2969C27.6562 15.5913 28.3558 16.6406 29.2188 16.6406Z" fill="#3E4347"/>
<path d="M33.8281 22.8906C31.9531 22.8906 30.3125 22.1875 30.3125 21.4844C30.3125 21.4062 30.3125 21.3281 30.3906 21.25C30.4688 21.1719 30.5469 21.1719 30.7031 21.1719C30.8594 21.1719 30.9375 21.25 31.1719 21.3281C31.6406 21.4844 32.5 21.875 33.9063 21.875C35.3125 21.875 36.1719 21.4844 36.5625 21.3281C36.7969 21.25 36.875 21.1719 37.0313 21.1719C37.1875 21.1719 37.3438 21.25 37.3438 21.4844C37.3438 22.1875 35.7031 22.8906 33.8281 22.8906" fill="#3E4347"/>
<g opacity="0.7">
<path d="M41.9531 20.5469C43.3338 20.5469 44.4531 19.6724 44.4531 18.5938C44.4531 17.5151 43.3338 16.6406 41.9531 16.6406C40.5724 16.6406 39.4531 17.5151 39.4531 18.5938C39.4531 19.6724 40.5724 20.5469 41.9531 20.5469Z" fill="#EA83A3"/>
<path d="M26.875 19.9219C27.9968 19.9219 28.9063 19.2923 28.9063 18.5156C28.9063 17.739 27.9968 17.1094 26.875 17.1094C25.7532 17.1094 24.8438 17.739 24.8438 18.5156C24.8438 19.2923 25.7532 19.9219 26.875 19.9219Z" fill="#EA83A3"/>
</g>
</svg>
