<svg width="50" height="50" viewBox="0 0 50 50" fill="none" xmlns="http://www.w3.org/2000/svg">
<path d="M21.875 45.3125C21.875 47.0313 23.2812 48.4375 25 48.4375C26.7188 48.4375 28.125 47.0313 28.125 45.3125H21.875Z" fill="#616466"/>
<path d="M19.4531 37.5H30.4688C31.0938 34.1406 33.2031 30.8594 35.3906 27.4219C37.9687 23.4375 40.625 19.2969 40.625 15.3125C40.625 7.73438 33.5938 1.5625 25 1.5625C16.4062 1.5625 9.375 7.73438 9.375 15.3125C9.375 19.2969 12.0313 23.4375 14.5313 27.4219C16.7188 30.8594 18.8281 34.1406 19.4531 37.5" fill="#FFCE31"/>
<path d="M20.6248 26.25C20.703 26.7187 20.8592 27.1875 20.9373 27.6563C21.1717 28.5156 21.328 29.2969 21.5623 30.1562C22.2655 33.125 22.8905 35.625 23.4373 37.5781H23.9061C23.5155 35.625 22.9686 33.0469 22.2655 30.0781C22.1092 29.2969 21.8748 28.4375 21.7186 27.5781C21.6405 27.1875 21.5623 26.7188 21.4061 26.3281C22.0311 26.1719 23.5155 25.7031 24.9998 24.0625C26.4842 25.7031 27.9686 26.1719 28.5936 26.3281C28.5155 26.7969 28.4373 27.1875 28.2811 27.5781C28.1248 28.4375 27.8905 29.2969 27.7342 30.0781C27.0311 33.0469 26.4842 35.625 26.0936 37.5781H26.5623C27.0311 35.625 27.7342 33.125 28.4373 30.1562C28.5936 29.375 28.828 28.5156 29.0623 27.6563C29.1405 27.1875 29.2967 26.7187 29.3748 26.25C29.9998 26.1719 30.5467 26.0156 30.9373 25.625C31.4061 25.1562 31.6405 24.6094 31.4842 23.9844C31.4061 23.6719 31.2498 23.2813 30.7811 23.2031C30.5467 23.125 30.3905 23.125 30.1561 23.2031C29.9217 23.2813 29.7655 23.4375 29.6873 23.5156C29.2967 23.9844 29.1405 24.4531 28.9842 24.9219L28.7498 25.625C28.7498 25.625 28.1248 25.7031 26.6405 24.6875C25.8592 24.1406 25.6248 23.75 25.3905 23.5156C25.6248 23.2031 25.8592 22.9687 26.0936 22.5781C26.1717 22.3437 26.2498 22.1875 26.328 21.875C26.328 21.6406 26.328 21.3281 26.1717 21.0937C26.0155 20.8594 25.8592 20.625 25.4686 20.4688C25.3123 20.3906 25.1561 20.3906 24.9998 20.3906C24.8436 20.3906 24.6873 20.3906 24.5311 20.4688C24.2186 20.625 23.9842 20.8594 23.828 21.0937C23.6717 21.3281 23.6717 21.6406 23.6717 21.875C23.6717 22.1094 23.7498 22.3437 23.9061 22.5781C24.0623 22.9687 24.2967 23.2812 24.6092 23.5156C24.3748 23.75 24.1405 24.1406 23.3592 24.6875C21.953 25.625 21.2498 25.625 21.2498 25.625L21.0155 24.9219C20.8592 24.4531 20.703 23.9844 20.3123 23.5156C20.2342 23.4375 20.078 23.2813 19.8436 23.2031C19.6092 23.125 19.3748 23.125 19.2186 23.2031C18.7498 23.3594 18.5936 23.75 18.5155 23.9844C18.4373 24.6094 18.6717 25.1562 19.0623 25.625C19.5311 26.0156 20.078 26.1719 20.6248 26.25V26.25ZM29.6873 25.0781C29.8436 24.6875 29.9998 24.2188 30.3123 23.9844C30.3905 23.9063 30.4686 23.9062 30.4686 23.9062H30.6248C30.703 23.9062 30.7811 23.9844 30.8592 24.2187C30.9373 24.5312 30.7811 25 30.4686 25.2344C30.2342 25.3906 29.9217 25.5469 29.6092 25.625C29.6092 25.3906 29.6092 25.2344 29.6873 25.0781V25.0781ZM24.5311 21.3281C24.6873 21.1719 24.8436 21.0156 24.9998 21.0156C25.1561 21.0156 25.3123 21.0937 25.4686 21.3281C25.6248 21.5625 25.5467 21.875 25.3905 22.1875C25.3123 22.4219 25.1561 22.6563 24.9998 22.8125C24.8436 22.5781 24.6873 22.4219 24.6092 22.1875C24.453 21.9531 24.3748 21.6406 24.5311 21.3281ZM19.2186 24.0625C19.2186 23.9062 19.2967 23.8281 19.453 23.75H19.6092C19.6092 23.75 19.6873 23.8281 19.7655 23.8281C19.9998 24.0625 20.2342 24.5312 20.3905 24.9219C20.4686 25.0781 20.4686 25.2344 20.5467 25.3906C20.2342 25.3125 19.9217 25.2344 19.6873 25C19.3748 24.8437 19.2186 24.4531 19.2186 24.0625" fill="#C79127"/>
<path d="M19.4531 39.0625H30.625V40.4687H19.4531V39.0625ZM20.2344 41.875H29.8438V43.2813H20.2344V41.875Z" fill="#94989B"/>
<path d="M20.2344 40.4688H29.8438V41.875H20.2344V40.4688Z" fill="#616466"/>
<path d="M30.625 39.0625L20.2344 41.875V43.3594L30.625 40.4687V39.0625ZM21.0156 44.7656H29.0625V46.1719H21.0156V44.7656Z" fill="#94989B"/>
<path d="M21.0156 43.3594H29.0625V44.7656H21.0156V43.3594Z" fill="#616466"/>
<path d="M29.8438 41.875L21.0156 44.7656V46.25L29.8438 43.3594V41.875Z" fill="#94989B"/>
</svg>
