<svg width="50" height="50" viewBox="0 0 50 50" fill="none" xmlns="http://www.w3.org/2000/svg">
<path d="M24.8438 46.4063C13.9453 46.4063 2.1875 39.5703 2.1875 24.5703C2.1875 9.57031 13.9453 2.73438 24.8438 2.73438C30.8984 2.73438 36.4844 4.72656 40.625 8.35937C45.1172 12.3437 47.5 17.9688 47.5 24.5703C47.5 31.1719 45.1172 36.7578 40.625 40.7422C36.4844 44.375 30.8594 46.4063 24.8438 46.4063Z" fill="url(#paint0_radial_5_83)"/>
<path d="M24.8438 46.4063C13.9453 46.4063 2.1875 39.5703 2.1875 24.5703C2.1875 9.57031 13.9453 2.73438 24.8438 2.73438C30.8984 2.73438 36.4844 4.72656 40.625 8.35937C45.1172 12.3437 47.5 17.9688 47.5 24.5703C47.5 31.1719 45.1172 36.7578 40.625 40.7422C36.4844 44.375 30.8594 46.4063 24.8438 46.4063Z" fill="url(#paint1_linear_5_83)"/>
<path d="M43.5508 11.5898C45.6328 14.9492 46.7188 18.9492 46.7188 23.3984C46.7188 30 44.3359 35.5859 39.8438 39.5703C35.7031 43.2031 30.0781 45.2344 24.0625 45.2344C17.0078 45.2344 9.60938 42.3633 5.24219 36.2734C9.44531 43.1719 17.3516 46.4062 24.8438 46.4062C30.8594 46.4062 36.4844 44.375 40.625 40.7422C45.1172 36.7578 47.5 31.1719 47.5 24.5703C47.5 19.5938 46.1445 15.1719 43.5508 11.5898V11.5898Z" fill="#EB8F00"/>
<path d="M2.48422 29.3359C1.77328 30.1992 3.285 32.4921 3.55453 33.6601C4.20297 36.4804 3.55453 37.1757 3.50375 39.6835C3.46078 42.4413 4.285 44.7617 6.38656 46.2421C8.36313 47.6445 10.7459 48.3632 13.7928 47.4648C16.8397 46.5664 18.6913 45.5742 18.8475 44.0742C18.9334 43.4531 18.6053 42.8437 18.035 42.5781C18.3397 42.4335 18.5819 42.1874 18.7186 41.8788C19.4452 40.1445 17.9959 39.7773 17.9959 39.7773C18.1952 39.539 18.3631 39.2773 18.4959 38.996C18.9295 38.1328 18.8592 36.9609 17.6092 36.5781C17.035 36.4023 16.8787 36.496 16.8787 36.496C17.4725 35.8867 18.1834 35.3984 18.9686 35.0703C21.0702 34.1679 23.5623 33.621 24.1834 33.0937C25.0858 32.3124 25.1405 30.8085 23.5467 30.3593C21.2577 29.6874 17.0467 31.2499 14.4842 32.8788C11.9217 34.5078 9.57016 35.3867 8.78891 35.0898C8.00766 34.7929 7.52328 34.3085 7.22641 33.1367C6.67563 30.957 6.24984 30.1132 5.31625 29.2968C4.54281 28.6328 3.03109 28.6718 2.48422 29.3359V29.3359Z" fill="url(#paint2_radial_5_83)"/>
<path d="M25.074 31.3983C24.8123 27.8202 17.7654 30.0311 14.1677 32.3866C9.69507 35.3163 9.03882 34.7968 8.60132 34.5233C8.07398 34.1952 7.74194 33.9218 7.48413 32.9061C6.9021 30.6093 6.74194 29.7655 5.69507 28.8514C4.82007 28.0429 2.18335 28.0624 2.00757 29.3436C1.81616 30.7225 2.59741 30.9804 3.12476 33.6327C3.7771 36.3202 3.51538 39.2889 3.51538 39.2889C3.51538 39.2889 4.73413 36.4569 3.56226 32.0429C3.32398 30.8514 2.19116 29.0272 4.10523 29.2343C5.95679 29.4335 6.07788 31.0468 6.65601 33.2772C6.97632 34.5389 7.30444 35.2811 8.57788 35.6327C9.84351 35.9804 12.7693 34.3554 14.8709 33.0194C17.4451 31.3827 21.2615 29.953 23.2654 30.5389C24.1326 30.7264 24.7107 31.8475 23.8005 32.6405C22.3552 34.0038 16.7966 34.6171 13.449 38.2382C13.449 38.2382 13.8552 38.3866 14.4646 38.0858C15.0779 37.785 17.3669 36.6522 17.3669 36.6522C18.0505 36.9413 18.3787 38.078 18.0076 38.6835C17.406 39.6639 15.0662 41.0194 13.8982 40.9608C13.8982 40.9608 13.8787 41.5585 15.0505 41.3983C15.4216 41.3475 16.9568 41.0116 18.031 40.1796C18.8318 40.7577 18.6052 41.7421 18.0037 42.453C17.406 43.16 15.9451 44.0741 14.4412 44.2343C14.4412 44.2343 14.2927 44.8046 15.3044 44.7929C16.3162 44.7811 17.4138 44.2655 18.2224 43.6366C18.3435 43.828 18.4568 44.246 18.3201 44.8202C18.1091 45.7069 16.9177 46.6054 14.6169 47.1054C12.4959 47.5663 10.1052 47.8905 5.49195 45.496C5.49195 45.496 7.2146 47.7343 11.7107 48.1327C16.0232 48.5155 21.0584 46.6054 19.0388 42.7733C19.0388 42.7733 19.4763 42.1249 19.531 41.2343C19.5701 40.6249 19.3787 39.7929 18.9294 39.4139C19.3513 38.1718 19.2185 37.3124 18.949 36.8046C18.7693 36.4686 18.3162 36.1405 18.3162 36.1405C18.3162 36.1405 19.2107 35.3319 21.8474 34.6522C23.5388 34.2108 25.2341 33.5858 25.074 31.3983V31.3983Z" fill="#EB8F00"/>
<path d="M7.28113 32.082C7.28113 32.082 9.16785 35.1523 13.3241 32.9258C13.3241 32.9258 10.7733 35.6016 8.78894 35.0898C6.80457 34.5781 7.28113 32.082 7.28113 32.082ZM19.1405 37.3203C19.1405 37.3203 20.1014 35.2578 21.8514 34.6445C21.8514 34.6445 19.0077 34.8867 17.9257 36.0547L19.1405 37.3203Z" fill="#EB8F00"/>
<path d="M30.0273 27.8554C29.9023 27.832 29.7852 27.7812 29.6875 27.6992C27.9266 26.2866 25.825 25.3624 23.5938 25.0195C21.3633 24.6327 19.0742 24.8437 16.9531 25.6288C16.8359 25.6757 16.7109 25.6913 16.5859 25.6718C16.3125 25.6249 16.0898 25.4218 16.0156 25.1523C15.9414 24.8866 16.0313 24.6054 16.2422 24.4296C20.3828 20.9921 26.5234 21.5624 29.9609 25.7031C30.2422 26.0429 30.5 26.4023 30.7344 26.7734C30.8828 27.0038 30.8828 27.3007 30.7344 27.5312C30.582 27.7695 30.3047 27.8945 30.0273 27.8554V27.8554ZM31.5508 12.1523C33.1875 12.1523 34.6758 13.5351 34.6758 15.832C34.6758 18.1288 33.1875 19.5077 31.5508 19.5077C29.9141 19.5077 28.4258 18.1249 28.4258 15.832C28.4258 13.539 29.9141 12.1523 31.5508 12.1523ZM18.0234 8.59368C16.3867 8.59368 14.8984 9.97649 14.8984 12.2695C14.8984 14.5624 16.3867 15.9492 18.0234 15.9492C19.6641 15.9492 21.1484 14.5663 21.1484 12.2695C21.1484 9.97259 19.6641 8.59368 18.0234 8.59368V8.59368ZM15.5195 4.15228C15.3438 3.86321 15.3203 3.50384 15.457 3.19524C15.6055 2.88665 15.8984 2.67571 16.2383 2.63274C18.3672 2.30071 20.5391 2.80462 22.3047 4.03509C22.9648 4.48821 23.5508 5.03509 24.0469 5.66399C24.0781 5.70306 24.1055 5.74603 24.1328 5.7929C24.3984 6.20696 24.3086 6.75384 23.9258 7.06243C23.7268 7.22719 23.4751 7.31472 23.2168 7.30898C22.9586 7.30324 22.711 7.20461 22.5195 7.03118L22.6836 6.76556L22.4844 6.99993C20.7747 5.56975 18.6342 4.75536 16.4063 4.68743C16.0352 4.68743 15.6914 4.49212 15.5039 4.17181L15.5195 4.15228V4.15228ZM36.3281 11.1406C36.4709 11.0609 36.5927 10.9486 36.6837 10.8128C36.7747 10.677 36.8322 10.5216 36.8516 10.3593C36.8638 10.1925 36.8346 10.0253 36.7664 9.87263C36.6982 9.71993 36.5933 9.58651 36.4609 9.48431C34.7695 8.13665 32.6211 7.49212 30.4688 7.69524C29.6719 7.76165 28.8906 7.94915 28.1484 8.24993L28.0078 8.31634C27.5742 8.54681 27.3828 9.06634 27.5625 9.52337C27.6541 9.76305 27.8287 9.9619 28.0545 10.0838C28.2803 10.2056 28.5423 10.2424 28.793 10.1874V9.87493L28.8477 10.1796C31.0352 9.77337 33.2969 10.1132 35.2695 11.1445C35.5938 11.3281 35.9883 11.3281 36.3125 11.1445L36.3281 11.1406V11.1406Z" fill="#422B0D"/>
<path d="M17.9533 9.82417C17.5509 9.54292 16.9455 9.63276 16.5548 10.1953C16.1642 10.7617 16.2931 11.3554 16.6955 11.6367C17.0978 11.9179 17.7033 11.8281 18.0939 11.2656C18.4845 10.6992 18.3556 10.1054 17.9533 9.82417ZM31.4728 13.1679C31.0705 12.8867 30.465 12.9765 30.0744 13.539C29.6837 14.1054 29.8126 14.6992 30.215 14.9804C30.6173 15.2617 31.2228 15.1718 31.6134 14.6093C32.008 14.0429 31.879 13.4492 31.4728 13.1679Z" fill="#896024"/>
<defs>
<radialGradient id="paint0_radial_5_83" cx="0" cy="0" r="1" gradientUnits="userSpaceOnUse" gradientTransform="translate(24.8437 24.5703) scale(22.25)">
<stop offset="0.5" stop-color="#FDE030"/>
<stop offset="0.92" stop-color="#F7C02B"/>
<stop offset="1" stop-color="#F4A223"/>
</radialGradient>
<linearGradient id="paint1_linear_5_83" x1="24.8437" y1="46.4062" x2="24.8437" y2="2.73438" gradientUnits="userSpaceOnUse">
<stop stop-color="#F4A223"/>
<stop offset="0.08" stop-color="#F7C02B"/>
<stop offset="0.54" stop-color="#FDE030" stop-opacity="0"/>
</linearGradient>
<radialGradient id="paint2_radial_5_83" cx="0" cy="0" r="1" gradientUnits="userSpaceOnUse" gradientTransform="translate(16.1913 32.6227) scale(23.2156 21.8227)">
<stop offset="0.27" stop-color="#FFF176"/>
<stop offset="1" stop-color="#FFC400"/>
</radialGradient>
</defs>
</svg>
